<svg width="1600" height="600" viewBox="0 0 1600 600" fill="none" xmlns="http://www.w3.org/2000/svg">
  <rect width="1600" height="600" fill="#064E3B"/>
  <rect width="1600" height="600" fill="url(#paint0_linear)"/>
  <circle cx="1290" cy="130" r="310" fill="#10B981" opacity=".16"/>
  <circle cx="108" cy="126" r="310" fill="#FFFFFF" opacity=".08"/>
  <circle cx="1420" cy="520" r="190" fill="#FBBF24" opacity=".16"/>
  <path d="M1190 368c0-110 86-200 192-200s192 90 192 200h-384Z" fill="#F59E0B"/>
  <path d="M1168 398h428c24 0 44 20 44 44s-20 44-44 44h-428c-24 0-44-20-44-44s20-44 44-44Z" fill="#047857"/>
  <path d="M1230 322h304" stroke="#065F46" stroke-width="38" stroke-linecap="round"/>
  <path d="M1274 266h220" stroke="#FFFFFF" stroke-width="18" stroke-linecap="round" opacity=".9"/>
  <circle cx="1306" cy="236" r="13" fill="#065F46"/>
  <circle cx="1382" cy="220" r="13" fill="#065F46"/>
  <circle cx="1458" cy="236" r="13" fill="#065F46"/>
  <path d="M110 420c210-82 394-80 552 4 127 68 286 74 474 18" stroke="#ECFDF5" stroke-width="42" stroke-linecap="round" opacity=".13"/>
  <text x="110" y="202" fill="#FFFFFF" font-family="Inter, Arial, sans-serif" font-size="74" font-weight="800">MenuFlow Demo</text>
  <text x="114" y="268" fill="#D1FAE5" font-family="Inter, Arial, sans-serif" font-size="34" font-weight="600">Cardapio, pedidos e cozinha em um fluxo simples.</text>
  <text x="116" y="340" fill="#FDE68A" font-family="Inter, Arial, sans-serif" font-size="26" font-weight="700">Aberto hoje para pedidos no salao, delivery e retirada</text>
  <defs>
    <linearGradient id="paint0_linear" x1="0" y1="0" x2="1600" y2="600" gradientUnits="userSpaceOnUse">
      <stop stop-color="#047857"/>
      <stop offset=".52" stop-color="#065F46"/>
      <stop offset="1" stop-color="#022C22"/>
    </linearGradient>
  </defs>
</svg>
