<svg width="512" height="512" viewBox="0 0 512 512" fill="none" xmlns="http://www.w3.org/2000/svg">
  <rect width="512" height="512" rx="112" fill="#047857"/>
  <rect x="38" y="38" width="436" height="436" rx="88" fill="#065F46"/>
  <circle cx="256" cy="256" r="164" fill="#ECFDF5"/>
  <path d="M156 271c0-61 45-111 100-111s100 50 100 111H156Z" fill="#F59E0B"/>
  <path d="M152 286h208c12 0 22 10 22 22s-10 22-22 22H152c-12 0-22-10-22-22s10-22 22-22Z" fill="#047857"/>
  <path d="M176 246h160" stroke="#065F46" stroke-width="22" stroke-linecap="round"/>
  <path d="M190 214h132" stroke="#FFFFFF" stroke-width="10" stroke-linecap="round" opacity=".95"/>
  <path d="M202 176l108 108M310 176 202 284" stroke="#065F46" stroke-width="22" stroke-linecap="round"/>
  <path d="M202 176l108 108M310 176 202 284" stroke="#FFFFFF" stroke-width="12" stroke-linecap="round"/>
  <circle cx="213" cy="198" r="8" fill="#065F46"/>
  <circle cx="256" cy="188" r="8" fill="#065F46"/>
  <circle cx="299" cy="198" r="8" fill="#065F46"/>
  <path d="M182 344h148" stroke="#065F46" stroke-width="18" stroke-linecap="round"/>
</svg>
